<svg width="22" height="22" viewBox="0 0 22 22" fill="none" xmlns="http://www.w3.org/2000/svg">
<rect width="10" height="10" rx="2" fill="white"/>
<rect y="12" width="10" height="10" rx="2" fill="white"/>
<rect x="12" width="10" height="10" rx="2" fill="white"/>
<rect x="12" y="12" width="10" height="10" rx="2" fill="white"/>
<path d="M14 5.12109H17.1201H20.2402" stroke="#5B9CDD" stroke-width="2"/>
<path fill-rule="evenodd" clip-rule="evenodd" d="M14 16.5V15L20 15V16.5L14 16.5Z" fill="#5B9CDD"/>
<path fill-rule="evenodd" clip-rule="evenodd" d="M14 19V17.5L20 17.5V19L14 19Z" fill="#5B9CDD"/>
<path d="M2 5.12109H5.12012M8.24023 5.12109H5.12012M5.12012 5.12109V2.00098M5.12012 5.12109V8.24121" stroke="#5B9CDD" stroke-width="2"/>
<path d="M2.91406 14.9141L5.12032 17.1203M7.32657 19.3266L5.12032 17.1203M5.12032 17.1203L7.32657 14.9141M5.12032 17.1203L2.91406 19.3266" stroke="#5B9CDD" stroke-width="2"/>
</svg>
