<svg width="35" height="35" viewBox="0 0 35 35" fill="none" xmlns="http://www.w3.org/2000/svg">
<g clip-path="url(#clip0)">
<path d="M34.9982 5C34.9982 2.23858 32.7596 0 29.9982 0H4.99841C2.23699 0 -0.00158691 2.23858 -0.00158691 5V29.9998C-0.00158691 32.7613 2.23699 34.9998 4.99841 34.9998H17.3243L17.3458 22.4928H14.0964C13.6742 22.4928 13.3314 22.1513 13.3298 21.7291L13.3142 17.6975C13.3126 17.2729 13.6563 16.9279 14.0809 16.9279H17.3244V13.0324C17.3244 8.51172 20.0853 6.05018 24.118 6.05018H27.4272C27.8506 6.05018 28.1939 6.39342 28.1939 6.8169V10.2163C28.1939 10.6396 27.8509 10.9828 27.4276 10.983L25.3968 10.984C23.2037 10.984 22.779 12.0261 22.779 13.5555V16.928H27.5981C28.0573 16.928 28.4135 17.3289 28.3594 17.7849L27.8816 21.8165C27.8359 22.2023 27.5087 22.493 27.1203 22.493H22.8005L22.779 35H29.9982C32.7596 35 34.9982 32.7614 34.9982 30V5Z" fill="#475993"/>
</g>
<defs>
<clipPath id="clip0">
<rect width="35" height="35" fill="white"/>
</clipPath>
</defs>
</svg>
