<svg width="510" height="1" viewBox="0 0 510 1" fill="none" xmlns="http://www.w3.org/2000/svg">
<g clip-path="url(#clip0)">
<path fill-rule="evenodd" clip-rule="evenodd" d="M2.5 1.00004H8.74228e-08L0 4.45856e-05L2.5 4.4367e-05V1.00004ZM12.5 1.00004H7.5V4.39299e-05L12.5 4.34928e-05V1.00004ZM22.5 1.00004H17.5V4.30557e-05L22.5 4.26186e-05V1.00004ZM32.5 1.00004L27.5 1.00004V4.21815e-05L32.5 4.17444e-05V1.00004ZM42.5 1.00004L37.5 1.00004V4.13072e-05L42.5 4.08701e-05V1.00004ZM52.5 1.00004L47.5 1.00004V4.0433e-05L52.5 3.99959e-05V1.00004ZM62.5 1.00004H57.5V3.95588e-05L62.5 3.91217e-05V1.00004ZM72.5 1.00004H67.5V3.86846e-05L72.5 3.82474e-05V1.00004ZM82.5 1.00004H77.5V3.78103e-05L82.5 3.73732e-05V1.00004ZM92.5 1.00004H87.5V3.69361e-05L92.5 3.6499e-05V1.00004ZM102.5 1.00004H97.5V3.60619e-05L102.5 3.56248e-05V1.00004ZM112.5 1.00003L107.5 1.00004V3.51876e-05L112.5 3.47505e-05V1.00003ZM122.5 1.00003L117.5 1.00003V3.43134e-05L122.5 3.38763e-05V1.00003ZM132.5 1.00003L127.5 1.00003V3.34392e-05L132.5 3.30021e-05V1.00003ZM142.5 1.00003H137.5V3.2565e-05L142.5 3.21279e-05V1.00003ZM152.5 1.00003H147.5V3.16907e-05L152.5 3.12536e-05V1.00003ZM162.5 1.00003H157.5V3.08165e-05L162.5 3.03794e-05V1.00003ZM172.5 1.00003H167.5V2.99423e-05L172.5 2.95052e-05V1.00003ZM182.5 1.00003H177.5V2.90681e-05L182.5 2.86309e-05V1.00003ZM192.5 1.00003L187.5 1.00003V2.81938e-05L192.5 2.77567e-05V1.00003ZM202.5 1.00003L197.5 1.00003V2.73196e-05L202.5 2.68825e-05V1.00003ZM212.5 1.00003L207.5 1.00003V2.64454e-05L212.5 2.60083e-05V1.00003ZM222.5 1.00003H217.5V2.55711e-05L222.5 2.5134e-05V1.00003ZM232.5 1.00002H227.5V2.46969e-05L232.5 2.42598e-05V1.00002ZM242.5 1.00002H237.5V2.38227e-05L242.5 2.33856e-05V1.00002ZM252.5 1.00002H247.5V2.29485e-05L252.5 2.25113e-05V1.00002ZM262.5 1.00002H257.5V2.20742e-05L262.5 2.16371e-05V1.00002ZM272.5 1.00002L267.5 1.00002V2.12e-05L272.5 2.07629e-05V1.00002ZM282.5 1.00002L277.5 1.00002V2.03258e-05L282.5 1.98887e-05V1.00002ZM292.5 1.00002L287.5 1.00002V1.94515e-05L292.5 1.90144e-05V1.00002ZM302.5 1.00002H297.5V1.85773e-05L302.5 1.81402e-05V1.00002ZM312.5 1.00002H307.5V1.77031e-05L312.5 1.7266e-05V1.00002ZM322.5 1.00002H317.5V1.68289e-05L322.5 1.63918e-05V1.00002ZM332.5 1.00002H327.5V1.59546e-05L332.5 1.55175e-05V1.00002ZM342.5 1.00001H337.5V1.50804e-05L342.5 1.46433e-05V1.00001ZM352.5 1.00001L347.5 1.00001V1.42062e-05L352.5 1.37691e-05V1.00001ZM362.5 1.00001L357.5 1.00001V1.3332e-05L362.5 1.28948e-05V1.00001ZM372.5 1.00001L367.5 1.00001V1.24577e-05L372.5 1.20206e-05V1.00001ZM382.5 1.00001H377.5V1.15835e-05L382.5 1.11464e-05V1.00001ZM392.5 1.00001H387.5V1.07093e-05L392.5 1.02722e-05V1.00001ZM402.5 1.00001H397.5V9.835e-06L402.5 9.3979e-06V1.00001ZM412.5 1.00001H407.5V8.9608e-06L412.5 8.5237e-06V1.00001ZM422.5 1.00001L417.5 1.00001V8.0866e-06L422.5 7.6495e-06V1.00001ZM432.5 1.00001L427.5 1.00001V7.2124e-06L432.5 6.7752e-06V1.00001ZM442.5 1.00001L437.5 1.00001V6.3381e-06L442.5 5.901e-06V1.00001ZM452.5 1L447.5 1.00001V5.4639e-06L452.5 5.0268e-06V1ZM462.5 1H457.5V4.5897e-06L462.5 4.1526e-06V1ZM472.5 1H467.5V3.7154e-06L472.5 3.2783e-06V1ZM482.5 1H477.5V2.8412e-06L482.5 2.4041e-06V1ZM492.5 1H487.5V1.967e-06L492.5 1.5299e-06V1ZM502.5 1L497.5 1V1.0928e-06L502.5 6.55698e-07V1ZM510 1L507.5 1V2.18497e-07L510 0V1Z" fill="#DFE0EB"/>
</g>
<defs>
<clipPath id="clip0">
<rect width="510" height="1" fill="white"/>
</clipPath>
</defs>
</svg>
