<svg width="35" height="35" viewBox="0 0 35 35" fill="none" xmlns="http://www.w3.org/2000/svg">
<rect width="35" height="35" rx="5" fill="url(#paint0_linear)"/>
<path d="M17.4972 4.57717C12.202 4.57717 7.17365 4.10613 5.25302 9.03529C4.45969 11.0711 4.5749 13.7151 4.5749 17.5009C4.5749 20.823 4.46844 23.9453 5.25302 25.9651C7.16927 30.8972 12.2384 30.4247 17.4943 30.4247C22.5649 30.4247 27.793 30.9526 29.737 25.9651C30.5318 23.9088 30.4151 21.3043 30.4151 17.5009C30.4151 12.4522 30.6936 9.19279 28.2451 6.74571C25.7659 4.26654 22.4132 4.57717 17.4914 4.57717H17.4972ZM16.3393 6.90613C27.3847 6.88863 28.7905 5.66071 28.0147 22.7188C27.7391 28.752 23.1453 28.0899 17.4986 28.0899C7.20281 28.0899 6.90677 27.7953 6.90677 17.4951C6.90677 7.07529 7.72344 6.91196 16.3393 6.90321V6.90613ZM24.3951 9.05134C23.5391 9.05134 22.8449 9.7455 22.8449 10.6015C22.8449 11.4576 23.5391 12.1518 24.3951 12.1518C25.2511 12.1518 25.9453 11.4576 25.9453 10.6015C25.9453 9.7455 25.2511 9.05134 24.3951 9.05134ZM17.4972 10.864C13.8324 10.864 10.8618 13.8361 10.8618 17.5009C10.8618 21.1657 13.8324 24.1363 17.4972 24.1363C21.162 24.1363 24.1311 21.1657 24.1311 17.5009C24.1311 13.8361 21.162 10.864 17.4972 10.864ZM17.4972 13.193C23.192 13.193 23.1993 21.8088 17.4972 21.8088C11.8039 21.8088 11.7951 13.193 17.4972 13.193Z" fill="white"/>
<defs>
<linearGradient id="paint0_linear" x1="2.34996" y1="32.7198" x2="34.7798" y2="4.64656" gradientUnits="userSpaceOnUse">
<stop stop-color="#FFDD55"/>
<stop offset="0.5" stop-color="#FF543E"/>
<stop offset="1" stop-color="#C837AB"/>
</linearGradient>
</defs>
</svg>
