<svg width="35" height="35" viewBox="0 0 35 35" fill="none" xmlns="http://www.w3.org/2000/svg">
<rect width="35" height="35" rx="5" fill="#0057A8"/>
<g clip-path="url(#clip0)">
<path d="M26.1578 22.207C26.1402 22.1615 26.1205 22.1171 26.0989 22.074C25.621 21.194 25.0346 20.4012 24.3587 19.7212L24.3409 19.6995L24.332 19.6891L24.3231 19.6787H24.3142C23.9256 19.2456 23.6797 18.9545 23.5764 18.8055C23.4875 18.6905 23.4284 18.5484 23.4058 18.3956C23.3832 18.2429 23.3982 18.0859 23.4489 17.9427C23.6803 17.4452 23.9561 16.9777 24.2717 16.5479C24.5208 16.1741 24.7182 15.8723 24.864 15.6427C25.9153 14.01 26.3708 12.9667 26.2305 12.5127L26.1763 12.4062C26.0998 12.3152 26.0012 12.254 25.8939 12.2307C25.703 12.1753 25.5044 12.1663 25.3104 12.2043L22.6865 12.2251C22.6264 12.2077 22.5633 12.2096 22.5041 12.2307L22.3855 12.2628L22.3395 12.2892L22.3032 12.3212C22.2646 12.3514 22.2308 12.389 22.2031 12.4326C22.165 12.4892 22.1343 12.5521 22.1119 12.6193C21.8396 13.4455 21.5137 14.2463 21.137 15.0146C20.9121 15.4547 20.7064 15.8363 20.5199 16.1594C20.3789 16.4118 20.2205 16.6503 20.0461 16.8724C19.9383 17.0041 19.8226 17.1267 19.6999 17.2393C19.5966 17.3317 19.5177 17.3707 19.4633 17.3563L19.3084 17.3138C19.2219 17.2486 19.1511 17.1587 19.1027 17.0526C19.0459 16.9232 19.0103 16.7824 18.9978 16.6377C18.9795 16.4705 18.9688 16.3268 18.9656 16.2067C18.9624 16.0865 18.964 15.9161 18.9704 15.6955C18.9768 15.4755 18.9797 15.3265 18.9793 15.2485C18.9793 14.9788 18.9838 14.6851 18.993 14.3673C19.0021 14.0495 19.0097 13.7993 19.0156 13.6166C19.022 13.4319 19.025 13.2366 19.0245 13.031C19.0273 12.87 19.0165 12.709 18.9923 12.5504C18.9712 12.4332 18.9392 12.319 18.897 12.2099C18.8581 12.1049 18.7931 12.0159 18.7105 11.9543C18.6159 11.8881 18.5129 11.8398 18.4054 11.8109C18.0005 11.7159 17.5884 11.6695 17.1754 11.6723C16.4423 11.6002 15.704 11.6868 14.9978 11.9279C14.868 12.0098 14.7519 12.1183 14.655 12.2483C14.5458 12.4043 14.5305 12.4895 14.6091 12.5039C14.7578 12.5159 14.903 12.5625 15.036 12.6411C15.1691 12.7196 15.2874 12.8285 15.3838 12.9613L15.4387 13.0895C15.4986 13.2458 15.5415 13.4102 15.5662 13.579C15.6112 13.8351 15.6387 14.0949 15.6485 14.3561C15.679 14.7989 15.679 15.2439 15.6485 15.6867C15.6179 16.0558 15.5891 16.3431 15.5621 16.5487C15.5431 16.7219 15.5017 16.8907 15.4394 17.0494C15.4071 17.13 15.3704 17.2082 15.3297 17.2834C15.3179 17.3044 15.3025 17.3224 15.2844 17.3362C15.2059 17.3716 15.1225 17.3898 15.0383 17.3899C14.92 17.3799 14.8073 17.3276 14.7153 17.2401C14.576 17.1213 14.4492 16.9836 14.3376 16.8299C14.1734 16.6014 14.0255 16.3576 13.8953 16.1009C13.7312 15.7885 13.5612 15.4194 13.3852 14.9938L13.2392 14.6845C13.1478 14.4859 13.0232 14.1967 12.8655 13.8169C12.7078 13.4372 12.5702 13.07 12.4528 12.7154C12.4118 12.5782 12.3354 12.4592 12.2341 12.3749L12.1881 12.3429C12.1431 12.3053 12.094 12.2748 12.0421 12.2523C11.9746 12.2202 11.9042 12.1971 11.8323 12.1834L9.3359 12.2043C9.24193 12.1906 9.14653 12.2018 9.05672 12.2368C8.9669 12.2719 8.88495 12.33 8.81688 12.407L8.78054 12.471C8.75908 12.5243 8.74964 12.583 8.75311 12.6417C8.75689 12.7406 8.77545 12.8379 8.80797 12.9293C9.17363 13.9301 9.56993 14.8955 9.99685 15.8253C10.4238 16.7551 10.7958 17.5029 11.1131 18.0684C11.4289 18.6362 11.7509 19.1721 12.0791 19.6763C12.4073 20.1805 12.6244 20.5033 12.7305 20.6448C12.837 20.7869 12.9206 20.8937 12.9814 20.9653L13.209 21.2208C13.4094 21.4438 13.6242 21.6484 13.8515 21.8329C14.1539 22.0855 14.4672 22.32 14.7901 22.5355C15.1676 22.7811 15.5703 22.9695 15.9886 23.0963C16.4208 23.2389 16.8701 23.2984 17.3187 23.2725H18.3629C18.5421 23.2664 18.7131 23.1831 18.8428 23.0386L18.8792 22.9849C18.9104 22.9236 18.9335 22.8572 18.9477 22.7878C18.9699 22.6925 18.9807 22.5941 18.98 22.4954C18.9717 22.2186 18.9915 21.9416 19.0389 21.6703C19.069 21.4784 19.1212 21.2922 19.1939 21.1167C19.2461 21.0016 19.3121 20.8958 19.39 20.8027C19.4357 20.7435 19.4878 20.6916 19.5449 20.648C19.5684 20.6339 19.5927 20.6216 19.6176 20.6112C19.7085 20.5884 19.8027 20.5914 19.8923 20.6202C19.9819 20.6489 20.0643 20.7024 20.1325 20.7762C20.3395 20.9537 20.5264 21.1613 20.6886 21.3939C20.8618 21.639 21.0698 21.9141 21.3125 22.219C21.5048 22.4708 21.7185 22.6992 21.9501 22.9008L22.1325 23.0282C22.2821 23.1274 22.4411 23.2058 22.6063 23.2621C22.7697 23.3301 22.9452 23.3483 23.1164 23.315L25.4475 23.2725C25.6336 23.2843 25.819 23.2384 25.985 23.1395C26.0905 23.0802 26.1721 22.9753 26.2127 22.8471C26.2372 22.7283 26.2389 22.6046 26.2175 22.485C26.2062 22.3901 26.1862 22.2969 26.1578 22.207Z" fill="white"/>
</g>
<defs>
<clipPath id="clip0">
<rect width="17.5" height="11.6667" fill="white" transform="translate(8.75 11.6694)"/>
</clipPath>
</defs>
</svg>
