<svg width="75" height="75" viewBox="0 0 75 75" fill="none" xmlns="http://www.w3.org/2000/svg">
<g clip-path="url(#clip0)">
<path d="M16.5532 38.3724H24.2954V48.8777H16.5532V38.3724Z" fill="url(#paint0_radial)"/>
<path d="M24.2947 33.4283H32.0369V48.8777H24.2947V33.4283Z" fill="url(#paint1_radial)"/>
<path d="M32.0375 28.4854H39.7797V48.8788H32.0375V28.4854Z" fill="url(#paint2_radial)"/>
<path d="M39.7792 23.5411H47.5214V48.8787H39.7792V23.5411Z" fill="url(#paint3_radial)"/>
<path d="M55.8154 50.3901H64.2305C65.0396 50.3901 65.6954 49.7342 65.6954 48.9253C65.6954 48.1164 65.0396 47.4604 64.2305 47.4604H55.8154C55.0064 47.4604 54.3506 48.1164 54.3506 48.9253C54.3506 49.7342 55.0064 50.3901 55.8154 50.3901Z" fill="#38434E"/>
<path d="M55.8154 44.2125H64.2305C65.0396 44.2125 65.6954 43.5566 65.6954 42.7477C65.6954 41.9388 65.0396 41.2828 64.2305 41.2828H55.8154C55.0064 41.2828 54.3506 41.9388 54.3506 42.7477C54.3506 43.5566 55.0064 44.2125 55.8154 44.2125Z" fill="#38434E"/>
<path d="M75 11.9321C75 8.91001 72.5606 6.45142 69.5619 6.45142H13.2735C10.275 6.45142 7.83545 8.91001 7.83545 11.9321V54.9058C7.83545 55.0151 7.84746 55.1214 7.87017 55.2238H1.46484C0.655811 55.2238 0 55.8798 0 56.6887V59.5921C0 64.5309 3.98218 68.5488 8.87681 68.5488H69.8126C72.673 68.5488 75 66.2037 75 63.3212V11.9321ZM10.7653 54.9058V11.9321C10.7653 10.5254 11.8906 9.3811 13.2737 9.3811H69.5621C70.9452 9.3811 72.0705 10.5256 72.0705 11.9321V54.9058C72.0705 55.0151 72.0825 55.1214 72.1052 55.2238H43.311C42.502 55.2238 41.8462 55.8798 41.8462 56.6887V57.0654H30.4591V56.6887C30.4591 55.8798 29.8033 55.2238 28.9942 55.2238H10.7306C10.7531 55.1214 10.7653 55.0151 10.7653 54.9058ZM72.0703 63.3212C72.0703 64.5881 71.0575 65.6191 69.8126 65.6191H8.87681C5.59761 65.6191 2.92969 62.9154 2.92969 59.5921V58.1535H27.5295V58.5303C27.5295 59.3392 28.1854 59.9951 28.9944 59.9951H43.3112C44.1202 59.9951 44.776 59.3392 44.776 58.5303V58.1535H72.0703V63.3212Z" fill="#38434E"/>
<path d="M75 11.9321C75 8.91001 72.5606 6.45142 69.5619 6.45142H13.2735C10.275 6.45142 7.83545 8.91001 7.83545 11.9321V54.9058C7.83545 55.0151 7.84746 55.1214 7.87017 55.2238H1.46484C0.655811 55.2238 0 55.8798 0 56.6887V59.5921C0 64.5309 3.98218 68.5488 8.87681 68.5488H69.8126C72.673 68.5488 75 66.2037 75 63.3212V11.9321ZM10.7653 54.9058V11.9321C10.7653 10.5254 11.8906 9.3811 13.2737 9.3811H69.5621C70.9452 9.3811 72.0705 10.5256 72.0705 11.9321V54.9058C72.0705 55.0151 72.0825 55.1214 72.1052 55.2238H43.311C42.502 55.2238 41.8462 55.8798 41.8462 56.6887V57.0654H30.4591V56.6887C30.4591 55.8798 29.8033 55.2238 28.9942 55.2238H10.7306C10.7531 55.1214 10.7653 55.0151 10.7653 54.9058ZM72.0703 63.3212C72.0703 64.5881 71.0575 65.6191 69.8126 65.6191H8.87681C5.59761 65.6191 2.92969 62.9154 2.92969 59.5921V58.1535H27.5295V58.5303C27.5295 59.3392 28.1854 59.9951 28.9944 59.9951H43.3112C44.1202 59.9951 44.776 59.3392 44.776 58.5303V58.1535H72.0703V63.3212Z" fill="url(#paint4_linear)"/>
<path d="M38.3163 15.0066H43.1878C43.9969 15.0066 44.6527 14.3506 44.6527 13.5417C44.6527 12.7329 43.9969 12.0769 43.1878 12.0769H38.3163C37.5073 12.0769 36.8515 12.7329 36.8515 13.5417C36.8515 14.3506 37.5073 15.0066 38.3163 15.0066Z" fill="#38434E"/>
</g>
<defs>
<radialGradient id="paint0_radial" cx="0" cy="0" r="1" gradientUnits="userSpaceOnUse" gradientTransform="translate(18.1288 39.5264) rotate(53.6107) scale(9.26041 8.84525)">
<stop stop-color="#548FC4"/>
<stop offset="1" stop-color="#76BEFF"/>
</radialGradient>
<radialGradient id="paint1_radial" cx="0" cy="0" r="1" gradientUnits="userSpaceOnUse" gradientTransform="translate(25.8703 35.1254) rotate(63.3832) scale(12.2626 9.82338)">
<stop stop-color="#548FC4"/>
<stop offset="1" stop-color="#76BEFF"/>
</radialGradient>
<radialGradient id="paint2_radial" cx="0" cy="0" r="1" gradientUnits="userSpaceOnUse" gradientTransform="translate(33.6131 30.7255) rotate(69.2113) scale(15.4792 10.2725)">
<stop stop-color="#548FC4"/>
<stop offset="1" stop-color="#76BEFF"/>
</radialGradient>
<radialGradient id="paint3_radial" cx="0" cy="0" r="1" gradientUnits="userSpaceOnUse" gradientTransform="translate(41.3548 26.3244) rotate(73.0089) scale(18.8005 10.5082)">
<stop stop-color="#548FC4"/>
<stop offset="1" stop-color="#76BEFF"/>
</radialGradient>
<linearGradient id="paint4_linear" x1="37.5" y1="6.45142" x2="37.5" y2="68.5488" gradientUnits="userSpaceOnUse">
<stop stop-color="#38434E"/>
<stop offset="1" stop-color="#708CA9"/>
</linearGradient>
<clipPath id="clip0">
<rect width="75" height="75" fill="white"/>
</clipPath>
</defs>
</svg>
