<svg width="75" height="75" viewBox="0 0 75 75" fill="none" xmlns="http://www.w3.org/2000/svg">
<path d="M43.5438 39.1504V72.4403H70.9994V39.1504H43.5438Z" stroke="#5B9CDD" stroke-width="2.5"/>
<path d="M43.5438 39.1504V72.4403H70.9994V39.1504H43.5438Z" stroke="url(#paint0_linear)" stroke-width="2.5"/>
<path d="M8.93385 67.3965H6.41245V72.5H19.7994V67.3965H16.5871M8.93385 67.3965V61.6594M8.93385 67.3965H16.5871M8.93385 15.2372H16.5871M8.93385 15.2372H2V10.7858M8.93385 15.2372L16.5871 22.9742M8.93385 15.2372V30.7113M16.5871 15.2372H41.0675M16.5871 15.2372V22.9742M16.5871 67.3965V53.9224M2 10.7858H8.93385H16.5871M2 10.7858L16.5871 3M56 10.7858V15.2372H50.3411M56 10.7858H16.5871M56 10.7858L33.5763 5.83303M41.0675 15.2372V20.19H45.7043M41.0675 15.2372H50.3411M50.3411 15.2372V20.19H45.7043M16.5871 3V5.83303V10.7858M16.5871 3L30.3729 5.31319M45.7043 20.19V26.1454H45.4231C43.523 26.1454 41.9827 27.6857 41.9827 29.5857V29.5857C41.9827 31.4858 43.523 33.0261 45.4231 33.0261H45.7043V33.0261C46.7964 33.0261 47.9154 32.7131 48.5607 31.832C48.9169 31.3458 49.2157 30.7491 49.2157 30.1156M16.5871 22.9742L8.93385 30.7113M16.5871 22.9742V38.4483M8.93385 30.7113L16.5871 38.4483M8.93385 30.7113V46.1853M16.5871 38.4483L8.93385 46.1853M16.5871 38.4483V53.9224M8.93385 46.1853L16.5871 53.9224M8.93385 46.1853V61.6594M16.5871 53.9224L8.93385 61.6594" stroke="black" stroke-width="2.5"/>
<path d="M8.93385 67.3965H6.41245V72.5H19.7994V67.3965H16.5871M8.93385 67.3965V61.6594M8.93385 67.3965H16.5871M8.93385 15.2372H16.5871M8.93385 15.2372H2V10.7858M8.93385 15.2372L16.5871 22.9742M8.93385 15.2372V30.7113M16.5871 15.2372H41.0675M16.5871 15.2372V22.9742M16.5871 67.3965V53.9224M2 10.7858H8.93385H16.5871M2 10.7858L16.5871 3M56 10.7858V15.2372H50.3411M56 10.7858H16.5871M56 10.7858L33.5763 5.83303M41.0675 15.2372V20.19H45.7043M41.0675 15.2372H50.3411M50.3411 15.2372V20.19H45.7043M16.5871 3V5.83303V10.7858M16.5871 3L30.3729 5.31319M45.7043 20.19V26.1454H45.4231C43.523 26.1454 41.9827 27.6857 41.9827 29.5857V29.5857C41.9827 31.4858 43.523 33.0261 45.4231 33.0261H45.7043V33.0261C46.7964 33.0261 47.9154 32.7131 48.5607 31.832C48.9169 31.3458 49.2157 30.7491 49.2157 30.1156M16.5871 22.9742L8.93385 30.7113M16.5871 22.9742V38.4483M8.93385 30.7113L16.5871 38.4483M8.93385 30.7113V46.1853M16.5871 38.4483L8.93385 46.1853M16.5871 38.4483V53.9224M8.93385 46.1853L16.5871 53.9224M8.93385 46.1853V61.6594M16.5871 53.9224L8.93385 61.6594" stroke="url(#paint1_linear)" stroke-width="2.5"/>
<path d="M61.6449 62.9219H58.8047V66.5701H61.6449V62.9219Z" fill="#5B9CDD"/>
<path d="M55.9633 62.9219H53.123V66.5701H55.9633V62.9219Z" fill="#5B9CDD"/>
<path d="M61.6449 50.1523H58.8047V53.8006H61.6449V50.1523Z" fill="#5B9CDD"/>
<path d="M55.9633 50.1523H53.123V53.8006H55.9633V50.1523Z" fill="#5B9CDD"/>
<path d="M67.3266 62.9219H64.4863V66.5701H67.3266V62.9219Z" fill="#5B9CDD"/>
<path d="M67.3266 50.1523H64.4863V53.8006H67.3266V50.1523Z" fill="#5B9CDD"/>
<path d="M67.3266 56.9355H64.4863V60.5838H67.3266V56.9355Z" fill="#5B9CDD"/>
<path d="M67.3266 44.168H64.4863V47.8162H67.3266V44.168Z" fill="#5B9CDD"/>
<path d="M61.6449 56.9355H58.8047V60.5838H61.6449V56.9355Z" fill="#5B9CDD"/>
<path d="M55.9633 56.9355H53.123V60.5838H55.9633V56.9355Z" fill="#5B9CDD"/>
<path d="M61.6449 44.168H58.8047V47.8162H61.6449V44.168Z" fill="#5B9CDD"/>
<path d="M55.9633 44.168H53.123V47.8162H55.9633V44.168Z" fill="#5B9CDD"/>
<path d="M50.2855 44.168H47.4453V47.8162H50.2855V44.168Z" fill="#5B9CDD"/>
<path d="M50 54.0873V71C50 72.6569 48.6569 74 47 74H37.5H28C26.3431 74 25 72.6569 25 71V54.0873C25 53.1556 25.4329 52.2767 26.1716 51.7089L35.6716 44.4056C36.7496 43.5768 38.2504 43.5768 39.3284 44.4056L44.7869 48.6019L48.8284 51.7089C49.5671 52.2767 50 53.1556 50 54.0873Z" fill="url(#paint2_radial)"/>
<path d="M36.0824 62.832H33.2422V66.4802H36.0824V62.832Z" fill="white"/>
<path d="M41.7641 62.832H38.9238V66.4802H41.7641V62.832Z" fill="white"/>
<path d="M41.7641 56.8477H38.9238V60.4959H41.7641V56.8477Z" fill="white"/>
<path d="M36.0824 56.8477H33.2422V60.4959H36.0824V56.8477Z" fill="white"/>
<defs>
<linearGradient id="paint0_linear" x1="37.3085" y1="43.2582" x2="37.3085" y2="72.4439" gradientUnits="userSpaceOnUse">
<stop stop-color="#38434E"/>
<stop offset="1" stop-color="#708CA9"/>
</linearGradient>
<linearGradient id="paint1_linear" x1="29" y1="3" x2="29" y2="72.3956" gradientUnits="userSpaceOnUse">
<stop stop-color="#38434E"/>
<stop offset="1" stop-color="#708CA9"/>
</linearGradient>
<radialGradient id="paint2_radial" cx="0" cy="0" r="1" gradientUnits="userSpaceOnUse" gradientTransform="translate(30.0878 46.4052) rotate(51.1155) scale(28.26 27.6186)">
<stop stop-color="#548FC4"/>
<stop offset="1" stop-color="#76BEFF"/>
</radialGradient>
</defs>
</svg>
