<svg width="75" height="75" viewBox="0 0 75 75" fill="none" xmlns="http://www.w3.org/2000/svg">
<g clip-path="url(#clip0)">
<path d="M63.8693 67.2615L62.7677 66.16V5.09824C62.7676 2.28252 60.485 4.15392e-07 57.6695 4.15392e-07H21.6443H21.6172C21.2343 -0.000292553 20.8676 0.154395 20.6006 0.428614L20.6003 0.428907L10.1783 10.8489C10.1766 10.8507 10.1562 10.8703 10.1253 10.9003C9.89197 11.1264 9.7575 11.4357 9.75134 11.7605C9.75002 11.8317 9.74915 11.8849 9.74915 11.8958V69.9019C9.74915 72.7176 12.0317 75.0001 14.8474 75.0001H60.7338C60.7364 75.0001 60.7389 75.0001 60.7414 75C60.7468 75 60.7522 75.0001 60.7576 75.0001C61.9579 75.0001 63.0866 74.5327 63.9353 73.6838C63.9353 73.6838 63.9353 73.6838 63.9355 73.6837C64.8223 72.797 65.2929 71.6048 65.249 70.3443C65.2086 69.1809 64.6924 68.0846 63.8693 67.2615ZM20.1709 5.00083V10.4199H14.7509L20.1709 5.00083ZM12.6788 69.9018V13.3496H21.6358C22.4447 13.3496 23.1006 12.6936 23.1006 11.8847V2.92969H57.6693C58.8651 2.92969 59.8379 3.90249 59.8379 5.09824V63.2303L56.3148 59.707C55.7426 59.1352 54.8154 59.1352 54.243 59.707L53.1368 60.8133L46.5517 54.2282C45.9796 53.6563 45.0523 53.6563 44.48 54.2282C43.908 54.8002 43.908 55.7278 44.48 56.3L51.0651 62.885L49.9588 63.9913C49.3868 64.5633 49.3868 65.4908 49.9588 66.063L55.9663 72.0703H14.8474C13.6515 72.0703 12.6788 71.0975 12.6788 69.9018ZM61.8639 71.612C61.8638 71.612 61.8638 71.612 61.8639 71.612C61.5681 71.9077 61.1754 72.0703 60.7575 72.0703C60.3396 72.0703 59.9467 71.9076 59.6511 71.612L53.0662 65.0271L55.2787 62.8145L61.8638 69.3995C62.1594 69.6951 62.322 70.0878 62.322 70.5057C62.3221 70.9236 62.1595 71.3165 61.8639 71.612Z" fill="#38434E"/>
<path d="M63.8693 67.2615L62.7677 66.16V5.09824C62.7676 2.28252 60.485 4.15392e-07 57.6695 4.15392e-07H21.6443H21.6172C21.2343 -0.000292553 20.8676 0.154395 20.6006 0.428614L20.6003 0.428907L10.1783 10.8489C10.1766 10.8507 10.1562 10.8703 10.1253 10.9003C9.89197 11.1264 9.7575 11.4357 9.75134 11.7605C9.75002 11.8317 9.74915 11.8849 9.74915 11.8958V69.9019C9.74915 72.7176 12.0317 75.0001 14.8474 75.0001H60.7338C60.7364 75.0001 60.7389 75.0001 60.7414 75C60.7468 75 60.7522 75.0001 60.7576 75.0001C61.9579 75.0001 63.0866 74.5327 63.9353 73.6838C63.9353 73.6838 63.9353 73.6838 63.9355 73.6837C64.8223 72.797 65.2929 71.6048 65.249 70.3443C65.2086 69.1809 64.6924 68.0846 63.8693 67.2615ZM20.1709 5.00083V10.4199H14.7509L20.1709 5.00083ZM12.6788 69.9018V13.3496H21.6358C22.4447 13.3496 23.1006 12.6936 23.1006 11.8847V2.92969H57.6693C58.8651 2.92969 59.8379 3.90249 59.8379 5.09824V63.2303L56.3148 59.707C55.7426 59.1352 54.8154 59.1352 54.243 59.707L53.1368 60.8133L46.5517 54.2282C45.9796 53.6563 45.0523 53.6563 44.48 54.2282C43.908 54.8002 43.908 55.7278 44.48 56.3L51.0651 62.885L49.9588 63.9913C49.3868 64.5633 49.3868 65.4908 49.9588 66.063L55.9663 72.0703H14.8474C13.6515 72.0703 12.6788 71.0975 12.6788 69.9018ZM61.8639 71.612C61.8638 71.612 61.8638 71.612 61.8639 71.612C61.5681 71.9077 61.1754 72.0703 60.7575 72.0703C60.3396 72.0703 59.9467 71.9076 59.6511 71.612L53.0662 65.0271L55.2787 62.8145L61.8638 69.3995C62.1594 69.6951 62.322 70.0878 62.322 70.5057C62.3221 70.9236 62.1595 71.3165 61.8639 71.612Z" fill="url(#paint0_linear)"/>
<path d="M54.3708 22.3809C54.3708 21.572 53.7149 20.916 52.906 20.916H20.2212C19.4123 20.916 18.7563 21.572 18.7563 22.3809C18.7563 23.1897 19.4123 23.8457 20.2212 23.8457H52.906C53.715 23.8457 54.3708 23.1899 54.3708 22.3809Z" fill="#38434E"/>
<path d="M27.5454 17.1138H45.5816C46.3905 17.1138 47.0464 16.4578 47.0464 15.6489C47.0464 14.84 46.3905 14.1841 45.5816 14.1841H27.5454C26.7365 14.1841 26.0806 14.84 26.0806 15.6489C26.0806 16.4578 26.7365 17.1138 27.5454 17.1138Z" fill="#38434E"/>
<path d="M36.9298 63.3852C46.1577 63.3852 53.6384 55.9045 53.6384 46.6766C53.6384 37.4487 46.1577 29.968 36.9298 29.968C27.7019 29.968 20.2212 37.4487 20.2212 46.6766C20.2212 55.9045 27.7019 63.3852 36.9298 63.3852Z" fill="url(#paint1_radial)"/>
<g filter="url(#filter0_d)">
<path d="M36.7106 50.7431C36.38 50.7431 36.0564 50.6311 35.7946 50.4214L33.0017 48.1836C32.3704 47.6778 32.2687 46.7558 32.7745 46.1245C33.2804 45.493 34.2026 45.3915 34.8337 45.8973L36.3378 47.1024L38.699 43.3004C39.1257 42.6132 40.0287 42.4022 40.7162 42.8289C41.4033 43.2557 41.6146 44.1588 41.1877 44.8461L37.9551 50.0511C37.7341 50.4071 37.3712 50.6513 36.9581 50.722C36.8757 50.7361 36.7928 50.7431 36.7106 50.7431Z" fill="white"/>
</g>
</g>
<defs>
<filter id="filter0_d" x="29.4528" y="41.6083" width="14.9556" height="14.1348" filterUnits="userSpaceOnUse" color-interpolation-filters="sRGB">
<feFlood flood-opacity="0" result="BackgroundImageFix"/>
<feColorMatrix in="SourceAlpha" type="matrix" values="0 0 0 0 0 0 0 0 0 0 0 0 0 0 0 0 0 0 127 0"/>
<feOffset dy="2"/>
<feGaussianBlur stdDeviation="1.5"/>
<feColorMatrix type="matrix" values="0 0 0 0 0 0 0 0 0 0 0 0 0 0 0 0 0 0 0.2 0"/>
<feBlend mode="normal" in2="BackgroundImageFix" result="effect1_dropShadow"/>
<feBlend mode="normal" in="SourceGraphic" in2="effect1_dropShadow" result="shape"/>
</filter>
<linearGradient id="paint0_linear" x1="37.5005" y1="0" x2="37.5005" y2="75.0001" gradientUnits="userSpaceOnUse">
<stop stop-color="#38434E"/>
<stop offset="1" stop-color="#708CA9"/>
</linearGradient>
<radialGradient id="paint1_radial" cx="0" cy="0" r="1" gradientUnits="userSpaceOnUse" gradientTransform="translate(27.0219 33.6387) rotate(45) scale(33.5356)">
<stop stop-color="#548FC4"/>
<stop offset="1" stop-color="#76BEFF"/>
</radialGradient>
<clipPath id="clip0">
<rect width="75" height="75" fill="white"/>
</clipPath>
</defs>
</svg>
